<?xml version="1.0" encoding="UTF-8" standalone="no"?>
<!-- Created with Inkscape (http://www.inkscape.org/) -->

<svg
   width="180"
   height="180"
   viewBox="0 0 180 180"
   version="1.1"
   id="svg5"
   sodipodi:docname="logoadc.svg"
   inkscape:version="1.1.1 (3bf5ae0d25, 2021-09-20)"
   xmlns:inkscape="http://www.inkscape.org/namespaces/inkscape"
   xmlns:sodipodi="http://sodipodi.sourceforge.net/DTD/sodipodi-0.dtd"
   xmlns="http://www.w3.org/2000/svg"
   xmlns:svg="http://www.w3.org/2000/svg">
  <sodipodi:namedview
     id="namedview7"
     pagecolor="#ffffff"
     bordercolor="#999999"
     borderopacity="1"
     inkscape:pageshadow="0"
     inkscape:pageopacity="0"
     inkscape:pagecheckerboard="0"
     inkscape:document-units="px"
     showgrid="true"
     inkscape:zoom="1.4142136"
     inkscape:cx="60.104076"
     inkscape:cy="68.235804"
     inkscape:window-width="1366"
     inkscape:window-height="706"
     inkscape:window-x="-8"
     inkscape:window-y="-8"
     inkscape:window-maximized="1"
     inkscape:current-layer="layer1"
     inkscape:snap-global="true"
     inkscape:snap-bbox="true">
    <inkscape:grid
       type="xygrid"
       id="grid824"
       dotted="true" />
  </sodipodi:namedview>
  <defs
     id="defs2">
    <inkscape:path-effect
       effect="bspline"
       id="path-effect1288"
       is_visible="true"
       lpeversion="1"
       weight="33.333333"
       steps="2"
       helper_size="0"
       apply_no_weight="true"
       apply_with_weight="true"
       only_selected="false" />
    <inkscape:path-effect
       effect="spiro"
       id="path-effect1091"
       is_visible="true"
       lpeversion="1" />
  </defs>
  <g
     inkscape:label="Layer 1"
     inkscape:groupmode="layer"
     id="layer1">
    <path
       style="fill:#ff6600;stroke:none;stroke-width:1px;stroke-linecap:butt;stroke-linejoin:miter;stroke-opacity:1"
       d="m 25,90.339885 56,-56 c 0,0 3.803468,-4 9,-4 5.19653,0 9,4 9,4 l 56,56 h -20 l -40,-40 c 0,0 -1.873572,-2 -5,-2 -3.126428,0 -5,2 -5,2 l -40,40 z"
       id="path859"
       sodipodi:nodetypes="cczccczcccc" />
    <path
       style="fill:#ff6600;stroke:none;stroke-width:1;stroke-linecap:butt;stroke-linejoin:miter;stroke-miterlimit:4;stroke-dasharray:none;stroke-opacity:1"
       d="M 104.5705,78.948595 H 75.214744 L 55.644239,98.5191 v 27.5705 l 19.570505,19.57051 H 104.5705 l 9.78526,-11.78526 H 79.128846 L 66.324495,121.0705 V 103.5382 L 79.128846,90.73385 H 114.35576 L 104.5705,78.948595"
       id="path5007"
       sodipodi:nodetypes="ccccccccccccc" />
    <path
       style="fill:#000000;stroke:#000000;stroke-width:1;stroke-linecap:butt;stroke-linejoin:miter;stroke-miterlimit:4;stroke-dasharray:none;stroke-opacity:1"
       d="M 43.02545,133.76654 5.64461,96.385705 c 0,0 -2.67006,-2.53888 -2.67006,-6.00764 0,-3.46876 2.67006,-6.00764 2.67006,-6.00764 l 37.38084,-37.38084 v 13.3503 l -26.7006,26.7006 c 0,0 -1.33503,1.25065 -1.33503,3.33758 0,2.08694 1.33503,3.33758 1.33503,3.33758 l 26.7006,26.700595 z"
       id="path14370"
       sodipodi:nodetypes="cczccczcccc" />
    <path
       style="fill:#000000;stroke:#000000;stroke-width:1;stroke-linecap:butt;stroke-linejoin:miter;stroke-miterlimit:4;stroke-dasharray:none;stroke-opacity:1"
       d="m 136.97455,46.989585 37.38084,37.38084 c 0,0 2.67006,2.53888 2.67006,6.00764 0,3.46876 -2.67006,6.00764 -2.67006,6.00764 l -37.38084,37.380835 v -13.3503 l 26.7006,-26.700595 c 0,0 1.33503,-1.25065 1.33503,-3.33758 0,-2.08694 -1.33503,-3.33758 -1.33503,-3.33758 l -26.7006,-26.7006 z"
       id="path15519"
       sodipodi:nodetypes="cczccczcccc" />
    <circle
       style="fill:#ff0000;fill-opacity:0.99616849;fill-rule:evenodd;stroke:none;stroke-width:1;stroke-miterlimit:4;stroke-dasharray:none;stroke-dashoffset:1.5"
       id="path16307"
       cx="113.52545"
       cy="112.83988"
       r="12" />
  </g>
</svg>
