<?xml version="1.0" encoding="UTF-8" standalone="no"?>
<!-- Created with Inkscape (http://www.inkscape.org/) -->

<svg
   width="180"
   height="180"
   viewBox="0 0 180 180"
   version="1.1"
   id="svg5"
   xmlns="http://www.w3.org/2000/svg"
   xmlns:svg="http://www.w3.org/2000/svg">
  

  <g id="layer1">
    <path
       style="fill:#ff6600;stroke:none;stroke-width:1px;stroke-linecap:butt;stroke-linejoin:miter;stroke-opacity:1"
       d="m 25,90.339885 56,-56 c 0,0 3.803468,-4 9,-4 5.19653,0 9,4 9,4 l 56,56 h -20 l -40,-40 c 0,0 -1.873572,-2 -5,-2 -3.126428,0 -5,2 -5,2 l -40,40 z"
       id="path859"
       />
    <path
       style="fill:#ff6600;stroke:none;stroke-width:1;stroke-linecap:butt;stroke-linejoin:miter;stroke-miterlimit:4;stroke-dasharray:none;stroke-opacity:1"
       d="M 104.5705,78.948595 H 75.214744 L 55.644239,98.5191 v 27.5705 l 19.570505,19.57051 H 104.5705 l 9.78526,-11.78526 H 79.128846 L 66.324495,121.0705 V 103.5382 L 79.128846,90.73385 H 114.35576 L 104.5705,78.948595"
       id="path5007"
       />
    <svg x="0" y="0">
      <path
         style="fill:#000000;stroke:#000000;stroke-width:1;stroke-linecap:butt;stroke-linejoin:miter;stroke-miterlimit:4;stroke-dasharray:none;stroke-opacity:1"
         d="M 43.02545,133.76654 5.64461,96.385705 c 0,0 -2.67006,-2.53888 -2.67006,-6.00764 0,-3.46876 2.67006,-6.00764 2.67006,-6.00764 l 37.38084,-37.38084 v 13.3503 l -26.7006,26.7006 c 0,0 -1.33503,1.25065 -1.33503,3.33758 0,2.08694 1.33503,3.33758 1.33503,3.33758 l 26.7006,26.700595 z"
         id="path14370"
      />
      <animate attributeType="XML" attributeName="x" values="0; -1.5; 0; 1.5; 0" dur="2s" begin="0s" fill="restore" repeatCount="indefinite"/>
    </svg>
    <svg x="0" y="0">
      <path
         style="fill:#000000;stroke:#000000;stroke-width:1;stroke-linecap:butt;stroke-linejoin:miter;stroke-miterlimit:4;stroke-dasharray:none;stroke-opacity:1"
         d="m 136.97455,46.989585 37.38084,37.38084 c 0,0 2.67006,2.53888 2.67006,6.00764 0,3.46876 -2.67006,6.00764 -2.67006,6.00764 l -37.38084,37.380835 v -13.3503 l 26.7006,-26.700595 c 0,0 1.33503,-1.25065 1.33503,-3.33758 0,-2.08694 -1.33503,-3.33758 -1.33503,-3.33758 l -26.7006,-26.7006 z"
         id="path15519"
      />
      <animate attributeType="XML" attributeName="x" values="0; 1.5; 0; -1.5; 0" dur="2s" begin="0s" fill="restore" repeatCount="indefinite"/>
    </svg>
      
    <circle
       style="fill:red"
       id="path16307"
       cx="113.52545"
       cy="112.83988"
       r="12">
       <animate attributeType="XML" attributeName="cx" values="113.52545; 90; 113.52545" dur="4s" begin="0s" fill="restore" repeatCount="indefinite"/>
    </circle>
  </g>
</svg>
